<svg width="16" height="16" viewBox="0 0 16 16" fill="none" xmlns="http://www.w3.org/2000/svg">
<g clip-path="url(#clip0_457_3521)">
<path d="M15.7068 0.293003C15.4338 0.0210027 15.0268 -0.0719973 14.6638 0.0590027L0.663812 5.059C0.286812 5.193 0.0258123 5.54 0.00181231 5.939C-0.0221877 6.339 0.193812 6.714 0.552812 6.894L5.13881 9.186L10.9998 5L6.81281 10.862L9.10481 15.448C9.27581 15.787 9.62281 16 9.99981 16C10.0208 16 10.0408 15.999 10.0608 15.998C10.4608 15.974 10.8078 15.714 10.9428 15.336L15.9428 1.336C16.0718 0.973003 15.9798 0.566003 15.7068 0.293003Z" fill="#475569"/>
</g>
<defs>
<clipPath id="clip0_457_3521">
<rect width="16" height="16" fill="white"/>
</clipPath>
</defs>
</svg>
